<svg xmlns="http://www.w3.org/2000/svg" id="Calque_2" viewBox="0 0 598.16 146.02"><defs><style>.cls-1{fill:#4f1d26;stroke-width:0}</style></defs><g id="Calque_1-2"><path d="M252.64 120.91c-.29-16.54-.07-33.08-.12-49.62-.01-4.79.04-9.61-.45-14.37-1.84-17.67-15.76-28.2-38.49-29.37-18.24-.93-38.68 11.19-42.55 24.88-1.03 3.64 1.49 4.72 3.75 6.15 8.88 5.6 17.84 11.11 27.11 16.85-6.53 3.32-12.7 6.06-18.41 9.44-18.03 10.71-24.65 28.14-17.64 45.57 5.72 14.22 22.68 19.59 37.03 11.74 5.58-3.05 9.59-7.42 13.26-12.2 1.45-1.89 4.21-5.26 5.3-5.35.6 5.1.77 5.09 1.16 9.86.56 6.75 3.82 8.08 6.64 8.07 10.1-.06 17.83-.03 28.62-.02 1.66 0 2.45-2.04 1.23-3.17-6.04-5.57-6.34-12.1-6.45-18.48zm-53.21-79.63c.14-4.78 1.34-9.08 7.96-9.68 6.32-.58 9.72 2.08 11.52 7.47 2.83 8.44 1.26 17.03 1.68 25.55.1 2.07-1.84 2.66-3.47 3.42-3.93 1.85-7.85 3.74-12.51 5.97-2.16-11.25-5.5-21.74-5.18-32.73zm19.33 67.63c-.6 2.55-1.55 5.05-2.64 7.46-1.5 3.31-4.43 8.96-8.73 8.96-3.76 0-6.73-2.54-7.97-5.64-5.99-14.86-4.45-35.98 21.27-45.68-.62 15.69 1.57 20-1.92 34.9zm325.06-26.74c12.5.03 25 .01 37.49.01q17.85 0 16.14-16.15c-1.96-18.55-15.19-33.79-32.14-37.03-21.47-4.11-39.9 3.37-51.27 20.52-4.85 7.33-7.66 15.28-8.71 23.59-2.67 20.92-1.35 41.38 14.39 58.5 11.53 12.54 26.82 16.94 44.32 12.47 13.98-3.57 22.63-11.9 27.72-23.12.82-1.81-1.54-3.39-2.91-1.94a54.38 54.38 0 0 1-3.15 3.11c-13.64 12.29-30.21 10.08-39.37-5.16-5.85-9.74-6.91-20.44-7.59-31.23-.24-3.77 2.3-3.56 5.08-3.56zm-4.81-9.93c1.01-12.11.14-20.55 5.25-32.17 2.18-4.96 4.98-9.44 11.94-8.35 6.64 1.03 7.45 6.29 7.95 11.03.65 6.13.72 7.98.64 14.04 0 .72-.07 1.43-.11 2.15q-.85 18.25-21.61 16.31c-2.3-.21-4.29-.22-4.05-3.02zM35.49 96.28c-4.88 10.35-6.74 23.19-6.54 32.02.18 8.23 5.15 12.79 12.52 13.37 7.9.62 13.98-2.76 15.59-9.47 1.05-4.39 1.09-8.92-.73-13.42-2.38-5.89-6.73-10.15-11.96-14.01-9.45-6.97-19.46-13.35-27.84-21.45C6.64 73.77 1.7 62.76 5.91 49.78c5.5-16.96 22.31-22.38 39.41-21.98 15.46.36 29.09 5.37 36.06 19.52 1.76 3.57 1.97 5.8-2.77 7.87-8.54 3.71-21.38 11.33-31.12 16.24 1.32-2.8 4.29-6.92 6.01-15.7.98-5 1.37-10.07.6-15.04-.84-5.44-3.78-9.22-10.94-9.18-6.84.04-10.23 3.01-11.41 8.77-2.06 10 2.14 17.85 10.37 24.18 10.51 8.08 21.35 15.81 31.73 24.03 13.47 10.67 17.48 24.21 11.12 37.37-5.78 11.95-17.31 16.68-30.65 19.12-20.91 3.82-40.95-3.14-49.84-17.59q-6.62-10.76 4.98-16.52c6.4-3.43 18.54-10.52 26.04-14.59zm409.7 0c-4.88 10.35-6.74 23.19-6.54 32.02.18 8.23 5.15 12.79 12.52 13.37 7.9.62 13.98-2.76 15.59-9.47 1.05-4.39 1.09-8.92-.73-13.42-2.38-5.89-6.73-10.15-11.96-14.01-9.45-6.97-19.46-13.35-27.84-21.45-9.87-9.55-14.81-20.56-10.6-33.53 5.5-16.96 22.31-22.38 39.41-21.98 15.46.36 29.09 5.37 36.06 19.52 1.76 3.57 1.97 5.8-2.77 7.87-8.54 3.71-21.38 11.33-31.12 16.24 1.32-2.8 4.29-6.92 6.01-15.7.98-5 1.37-10.07.6-15.04-.84-5.44-3.78-9.22-10.94-9.18-6.84.04-10.23 3.01-11.41 8.77-2.06 10 2.14 17.85 10.37 24.18 10.51 8.08 21.35 15.81 31.73 24.03 13.47 10.67 17.48 24.21 11.12 37.37-5.78 11.95-17.31 16.68-30.65 19.12-20.91 3.82-40.95-3.14-49.84-17.59q-6.62-10.76 4.98-16.52c6.4-3.43 18.54-10.52 26.04-14.59zm-354.94-65c13.81 0 14.8-3.5 23.95-11.76 6.46-5.84 12.51-12.1 20.16-19.52v21.51c0 10 0 9.92 10.75 10.05 3.34.04 7.94-.28 10.85 1.08-3.35 1.6-9.91 1.54-14.38 1.68-6.14.19-7.43 1.62-7.36 6.86.32 23.73.06 47.47.21 71.21.03 4.58-1.56 10.32 4.5 12.76 5.89 2.37 9.76-2.18 13.9-5.03 0 0 .02-.01.03-.02 1.02-.7 2.31.45 1.72 1.55-2.96 5.57-6.22 10.93-10.29 15.9-5.47 6.69-12.89 9.1-21.67 7.85-9.03-1.29-14.46-6.76-17.33-14.21-2.18-5.66-3.2-11.55-3.16-17.64.13-23.5-.23-47 .23-70.49.13-6.57-.74-8.61-9.2-8.62-1 0-2.11-.07-2.92-3.15zm269.28-3.39h37.21c2.03 0 3.2 2.33 1.96 3.94-5.39 6.97-4.25 15.22-4.27 23.2-.06 20.86-.06 45.61.01 66.46.03 9.02.54 11.91 4.65 16.76 1.36 1.6.23 4.05-1.87 4.05h-38.07c-2.09 0-3.24-2.46-1.87-4.05 6.15-7.12 5.03-15.8 5.05-24.2.05-20.38-.02-44.65.02-65.02.01-6.11-.54-12.02-4.76-17.16-1.3-1.59-.12-3.98 1.93-3.98zm-46.5 31.23c-2.68 7.21-1.9 14.69-1.94 22.08-.07 13.66-.12 27.32.06 40.98.13 9.21.85 11.87 6.52 16.81 1.27 1.11.5 3.2-1.19 3.2h-42.02c-1.62 0-2.42-1.94-1.29-3.1 5.32-5.45 5.85-12.14 5.87-18.91.08-22.29.12-44.57-.03-66.86-.05-7.65-.43-15.38-9.71-21.81 13.19 0 24.45.1 35.7-.06 3.7-.05 3.25 2.07 3.73 4.17 1.68 7.22-.38 14.75 2.34 21.86 1.73-.5 2.22.19 1.95 1.63z" class="cls-1"/><path d="m313.03 59.12-1.95-1.63c4.3-6 8.58-12.01 12.91-17.99 2.48-3.42 5.32-6.55 9.29-8.7 3.97-2.15 9-3.89 12.7-2.59 3.02 1.06 2.38 6 2.44 9.25.15 8.64.02 17.36-1.19 26.45-.39 2.9-3.11 4.83-5.72 3.49-5.24-2.7-9.61-6.22-14.76-8.52-4.83-2.16-9.21-3.53-13.72.24z" class="cls-1"/></g></svg>