<svg xmlns="http://www.w3.org/2000/svg" viewBox="0 0 168.81 160.96"><path fill="#4f1d26" d="m163.29 75.02-32.07 23.24a6.583 6.583 0 0 0-2.4 7.36l12.14 37.3c3.96 12.17-9.87 22.36-20.31 14.98L88 134.83a6.568 6.568 0 0 0-7.58 0l-33.66 23.66c-10.39 7.31-24.13-2.71-20.34-14.84l5.96-19.08c9.89-10.01 19.68-11.84 19.68-11.84l-1.78 15.54a71.484 71.484 0 0 1 19.8-8.88l.44-.13c4.36-1.21 8.52-3.07 12.22-5.66 9.79-6.88 13.73-15.61 15.1-19.6.4-1.17 1.69-1.76 2.83-1.31 2.36.9 6.09 2.33 8.29 3.16 1.74.66 3.53-.87 3.15-2.7-1.62-7.8-4.97-24.23-5.75-29.83-.28-1.97-2.58-2.91-4.15-1.7-4.54 3.5-18.64 12.72-25.28 17.03-1.55 1.01-1.4 3.32.26 4.13 1.7.82 4.91 2.28 7.05 3.26 1.21.55 1.65 2.04.91 3.16-2.4 3.65-8.44 10.93-19.91 13.9l1.15-11.46c-8.05.48-16.32 2.26-23.65 5.31a8.08 8.08 0 0 1-7.82-.88L5.59 75.06c-10.5-7.53-5.18-24.1 7.75-24.1h39.5a6.58 6.58 0 0 0 6.24-4.5L71.53 9.1c4.05-12.15 21.23-12.12 25.24.04l12.29 37.3c.89 2.7 3.41 4.52 6.25 4.52h40.19c12.89 0 18.24 16.5 7.81 24.06z"/></svg>