<?xml version="1.0" encoding="utf-8" ?>
<svg xmlns="http://www.w3.org/2000/svg" xmlns:xlink="http://www.w3.org/1999/xlink" width="191" height="245">
	<path fill="#004BAD" d="M88.0413 74.2997C86.0366 72.7912 84.2473 70.6783 82.4909 68.8753C76.9024 63.1382 71.9601 56.8435 66.9487 50.6058C61.3971 43.6958 55.7203 35.5793 48.088 30.8259C44.9373 28.8637 41.1579 27.7069 37.4263 28.2459C32.845 28.9076 27.7421 32.0001 24.9998 35.722C22.9495 38.5047 21.7922 41.6435 22.3455 45.1263C23.8155 54.3783 33.1783 62.2328 40.3749 67.4091C53.7386 77.0213 71.5155 84.223 87.1562 89.2038C90.6216 90.3073 94.1541 91.1621 97.6374 92.2012Q110.704 96.0165 123.435 100.837C149.728 111.029 182.33 129.771 187.361 160.257Q187.637 161.896 187.831 163.546Q188.025 165.197 188.136 166.855Q188.248 168.514 188.276 170.175Q188.304 171.837 188.25 173.498Q188.195 175.159 188.058 176.815Q187.921 178.472 187.701 180.119Q187.481 181.766 187.179 183.401Q186.878 185.035 186.495 186.652Q186.112 188.27 185.649 189.866Q185.186 191.462 184.644 193.033Q184.101 194.604 183.482 196.146Q182.862 197.688 182.166 199.197Q181.469 200.706 180.699 202.179Q179.928 203.651 179.085 205.084Q178.242 206.516 177.329 207.904Q176.416 209.293 175.434 210.634C162.573 228.517 143.933 239.598 122.26 243.102Q119.94 243.487 117.6 243.725Q115.26 243.962 112.91 244.052Q110.56 244.141 108.208 244.082Q105.857 244.022 103.514 243.814Q101.172 243.607 98.8468 243.251Q96.5219 242.896 94.2241 242.394Q91.9263 241.892 89.6648 241.246Q87.4033 240.6 85.1871 239.813C78.7419 237.536 72.4317 234.501 66.4442 231.218C53.8661 224.321 42.5309 214.957 27.2794 217.361C22.7386 218.077 18.9246 219.923 16.1695 223.709C11.5886 230.004 13.1292 239.251 11.6778 241.608C11.4051 242.051 10.8985 242.101 10.4364 242.174C9.41454 242.336 6.39576 242.498 5.55231 241.871C4.93547 241.412 4.78941 239.622 4.71018 238.888C4.35012 235.552 4.38996 232.091 4.33637 228.734C4.25979 223.937 4.24352 218.885 4.71348 214.103C6.06834 200.319 10.6767 185.267 19.5193 174.377C27.888 164.071 41.6094 157.821 54.6698 156.467C71.0909 154.765 84.2333 158.717 96.9977 169.108C103.179 174.14 108.598 179.717 113.887 185.666C119.004 191.421 123.876 197.416 129.164 203.011C135.424 209.636 142.982 218.461 153.119 217.449C157.729 216.988 162.517 214.042 165.42 210.492C167.421 208.044 168.308 205.161 167.964 202.014C167.086 193.989 159.437 186.644 153.391 181.826C140.66 171.681 123.332 163.29 108.035 157.69C95.2557 153.011 82.054 149.697 69.2102 145.228C38.9246 134.691 8.43032 118.191 4.46152 83.1215C2.28871 63.9219 6.68971 46.5674 18.8203 31.3569Q20.0046 29.8586 21.2606 28.4199Q22.5166 26.9813 23.8413 25.6056Q25.1661 24.23 26.5564 22.9207Q27.9467 21.6113 29.3993 20.3714Q30.8519 19.1316 32.3633 17.9641Q33.8747 16.7966 35.4413 15.7043Q37.0079 14.612 38.6259 13.5975Q40.244 12.5829 41.9096 11.6486Q43.5753 10.7143 45.2845 9.86245Q46.9938 9.01058 48.7427 8.24317Q50.4915 7.47576 52.2757 6.79465Q54.0599 6.11354 55.8753 5.52035Q57.6906 4.92716 59.5327 4.4233Q61.3749 3.91945 63.2394 3.50614Q65.104 3.09282 66.9865 2.77103Q68.8689 2.44924 70.7649 2.21974C82.4632 0.913138 94.3233 1.8879 105.374 6.10692C113.735 9.29896 121.327 14.0504 128.867 18.7936C133.659 21.8084 138.526 25.1751 143.877 27.1324C151.89 30.0635 163.573 29.5989 169.297 22.499C173.754 16.9716 173.62 10.1562 174.141 3.45422C176.366 3.12316 178.65 3.27548 180.892 3.33033C181.884 8.43625 181.898 13.4094 181.87 18.5927C181.78 35.1891 179.138 52.9372 169.664 66.998C161.649 78.8945 149.067 85.7413 135.2 88.4288C122.283 90.932 108.282 89.0772 97.2155 81.5959C97.03 81.4705 96.8679 81.3318 96.7123 81.1715C93.7269 79.2657 90.4498 76.9122 88.0413 74.2997Z"/>
</svg>
