<?xml version="1.0" encoding="utf-8" ?>
<svg xmlns="http://www.w3.org/2000/svg" xmlns:xlink="http://www.w3.org/1999/xlink" width="450" height="64">
	<path fill="#3E669D" d="M3.17994 56.2166L3.26767 56.2856C3.49773 56.1627 5.54857 55.9603 6.68545 55.4199C5.81512 56.7014 4.86489 60.5654 3.67289 60.9987C2.91227 60.0906 2.95336 57.9565 3.05367 56.8353Q3.0851 56.5195 3.17994 56.2166Z"/>
	<path fill="#3E669D" d="M43.9762 51.408C44.7748 51.8968 45.2453 52.1183 46.2053 51.893Q46.3704 51.8533 46.5325 51.8025C45.2386 53.9132 43.536 56.0475 41.448 57.4267C41.5884 57.125 41.6855 56.8 41.7934 56.4854C41.2178 55.7542 40.0138 55.6921 39.1089 55.476C40.4075 55.1816 41.5911 54.6032 42.7289 53.9312C43.1696 53.1045 43.5655 52.2501 43.9762 51.408Z"/>
	<path fill="#3E669D" d="M4.84066 11.5742C6.27416 8.30497 10.1279 5.15551 13.266 3.65294C12.8155 4.70884 11.5285 6.50494 11.5497 7.50882C10.014 8.03128 8.47733 8.56812 7.70902 10.1285C7.39563 10.7649 7.27275 11.414 7.20146 12.1142C6.40577 11.8367 5.67951 11.6603 4.84066 11.5742Z"/>
	<path fill="#3E669D" d="M179.148 43.4957C181.153 43.3977 183.715 43.0728 185.683 43.5224L191.769 43.4781C191.924 43.8456 192.147 44.6427 192.412 44.9059C190.506 45.2676 188.087 44.97 186.125 44.9532C184.626 45.0082 180.743 44.7275 179.58 45.2734C179.64 44.5679 179.439 44.1156 179.148 43.4957Z"/>
	<path fill="#024BAC" d="M3.17994 56.2166C3.21155 53.3394 3.82358 50.3276 5.07929 47.7301C6.39319 45.0124 8.80141 42.1737 11.7232 41.1673C26.8317 35.9632 29.1618 50.6384 39.1089 55.476C40.0138 55.6921 41.2178 55.7542 41.7934 56.4854C41.6855 56.8 41.5884 57.125 41.448 57.4267Q40.9018 57.8231 40.3303 58.182Q39.7588 58.5409 39.1644 58.8607Q38.5701 59.1804 37.9557 59.4595Q37.3412 59.7387 36.7094 59.976Q36.0776 60.2132 35.4314 60.4076Q34.7851 60.602 34.1272 60.7525Q33.4693 60.9031 32.8029 61.0092Q32.1364 61.1153 31.4643 61.1764Q30.7922 61.2375 30.1175 61.2534Q29.4428 61.2693 28.7686 61.2399Q28.0943 61.2105 27.4236 61.1359Q26.7528 61.0613 26.0886 60.9419Q25.4244 60.8225 24.7697 60.6588Q24.1149 60.495 23.4727 60.2878Q22.8304 60.0805 22.2035 59.8306Q21.5766 59.5807 20.9679 59.2893C17.5599 57.6587 14.0708 55.0376 10.2074 54.7258C9.08308 54.6351 7.76559 55.1192 6.68545 55.4199C5.54857 55.9603 3.49773 56.1627 3.26767 56.2856L3.17994 56.2166Z"/>
	<path fill="#024BAC" d="M39.7678 8.51149C41.962 7.94379 43.1791 7.63724 44.3908 5.57131C44.9702 4.58341 45.4026 2.53754 46.251 1.9192C47.3542 3.15885 47.171 5.62049 47.081 7.17602C46.8122 11.8227 45.6958 16.3898 42.0733 19.6189C39.3333 22.0613 35.3685 23.165 31.726 22.9394C27.4708 22.6759 24.1861 19.7857 21.5086 16.7382C18.756 13.6053 15.796 8.64147 11.5497 7.50882C11.5285 6.50494 12.8155 4.70884 13.266 3.65294C18.0654 1.53362 23.0781 0.828769 28.0732 2.7616C32.1327 4.33241 35.5843 7.33199 39.7678 8.51149Z"/>
	<path fill="#024BAC" d="M4.84066 11.5742C5.67951 11.6603 6.40577 11.8367 7.20146 12.1142C9.66661 17.3712 15.0724 20.2967 20.3426 22.2017C29.5557 25.532 42.7903 27.7868 47.4114 37.6056C49.1253 41.2473 49.1499 45.4865 47.7886 49.2419C47.4767 50.1024 47.0358 51.0396 46.5325 51.8025Q46.3704 51.8533 46.2053 51.893C45.2453 52.1183 44.7748 51.8968 43.9762 51.408C43.1273 49.2175 41.9284 47.3395 40.6947 45.3541C36.9631 43.3586 33.2366 41.4441 29.2392 40.0235C23.8068 38.0929 18.0567 36.7577 12.9222 34.083C8.91165 31.9938 5.15661 28.8054 3.76279 24.355C2.49201 20.2974 2.88441 15.307 4.84066 11.5742Z"/>
	<path fill="#024BAC" d="M236.59 1.62494C242.106 1.30618 247.539 2.87767 252.5 5.16423C257.159 7.31133 262.122 11.2949 267.493 10.6988C270.808 10.3311 273.583 7.9018 274.737 4.79798C275.027 4.01653 275.165 2.77799 275.68 2.14434C275.756 2.05084 275.832 1.96012 275.917 1.8747L276.368 1.96912C277.249 3.29595 276.78 6.03214 276.475 7.54452Q276.292 8.45933 276.02 9.35147Q275.747 10.2436 275.387 11.1043Q275.027 11.9649 274.584 12.7856Q274.14 13.6062 273.617 14.3787Q273.094 15.1512 272.497 15.868Q271.9 16.5847 271.235 17.2386Q270.569 17.8925 269.842 18.477Q269.115 19.0616 268.334 19.571C262.604 23.3738 256.146 24.007 249.505 22.6078C247.272 22.1375 245.11 21.3983 242.872 20.9476C244.208 22.4132 244.784 24.3253 246.277 25.767C249.498 28.8773 253.736 27.9097 257.139 30.1209C258.229 30.8286 258.869 31.9149 259.132 33.1726C259.443 34.6612 259.63 38.6018 258.798 39.875C258.966 40.1403 259.101 40.4779 259.163 40.7857C259.53 42.5971 259.434 57.4585 259.226 59.7625C259.185 60.2249 259.058 60.6118 258.802 61.0018L240.276 60.9945Q240.476 60.6987 240.587 60.359C240.954 59.1984 240.804 25.7022 240.558 21.4112C240.52 20.7445 240.462 20.1666 240.147 19.5626C237.4 17.4743 233.139 16.862 229.81 17.0168C229.812 17.0629 229.81 17.1044 229.795 17.1486C229.366 18.4003 228.519 19.9079 228.551 21.2477C228.574 22.2312 229.283 23.3188 229.124 24.2741C229.056 24.6847 228.932 24.7243 228.614 24.9505C228.281 24.8855 227.996 24.7543 227.73 24.5436C225.607 22.8596 223.416 19.8049 223.113 17.0896C222.716 13.5386 223.676 9.39841 225.926 6.59339C228.55 3.32131 232.585 2.07412 236.59 1.62494Z"/>
	<path fill="#024BAC" d="M291.588 1.87484C307.14 0.138438 315.11 11.028 323.831 10.7209C327.463 10.593 330.352 8.30419 331.656 4.94403C332.056 3.9132 332.208 2.61734 332.976 1.79139L333.422 1.83587C333.487 1.92556 333.548 2.01691 333.603 2.11349C334.499 3.68863 333.724 6.92937 333.239 8.629C331.776 13.7691 328.548 17.9222 323.878 20.5224C316.058 24.8763 307.834 23.2836 299.642 20.9525C301.706 22.7647 302.357 25.5308 304.895 27.0227C307.583 28.6032 313.184 28.4161 315.048 30.8955C315.687 31.7177 315.989 32.5907 316.203 33.6035C316.454 34.7884 316.666 36.5638 315.976 37.6255C316.109 37.8321 316.221 38.0498 316.298 38.2837C316.745 39.6413 316.478 57.1252 316.332 59.256C316.289 59.8895 316.207 60.4497 315.919 61.0243C309.744 60.9156 303.557 60.9946 297.381 61.0028C297.52 60.7689 297.655 60.4963 297.708 60.2272C298.054 58.4839 297.882 56.2671 297.927 54.4512C298.108 47.115 297.879 39.7919 297.725 32.4575C297.644 28.6355 297.898 24.6702 297.667 20.8715C297.641 20.4563 297.531 20.1038 297.294 19.757C295.373 18.6564 293.131 17.5757 290.956 17.1144C289.824 16.8743 288.017 16.6376 286.992 17.3232C284.742 18.8291 286.428 22.4873 286.009 24.6249C285.968 24.8321 285.838 24.8657 285.671 24.9801C285.35 24.904 285.012 24.8053 284.72 24.6471C282.797 23.6019 281.003 20.0907 280.417 18.0422C279.531 14.9498 280.061 11.2003 281.627 8.3993C283.807 4.49931 287.537 3.02255 291.588 1.87484Z"/>
	<path fill="#024BAC" d="M66.2273 1.62268C73.2801 1.37681 79.5315 4.05923 85.6544 7.23203C87.8635 8.37681 90.0698 9.68525 92.4738 10.3775C96.4283 11.5163 100.974 10.0673 103.094 6.40834C103.829 5.13966 103.99 2.49374 105.266 1.78412L105.625 2.1276C106.337 3.86881 105.776 6.24629 105.331 8.02014C104.063 13.0802 101.158 17.4077 96.6381 20.1112C88.2107 25.1517 80.5179 23.037 71.6518 20.8165C72.874 22.2318 73.4906 23.9728 74.8361 25.353C78.0406 28.6401 82.4588 27.9147 86.0074 30.1122C87.1318 30.8086 87.8308 31.8673 88.1274 33.1479C88.4616 34.5908 88.7386 38.3803 87.9596 39.6282C88.1208 39.8805 88.2499 40.1935 88.3198 40.4845C88.7835 42.4168 88.5823 59.8218 87.8601 61.012Q78.6167 60.9411 69.3734 61.0139C69.5767 60.668 69.6989 60.3316 69.719 59.9303C70.0968 52.3606 69.6832 44.5586 69.6726 36.9664C69.6647 31.3189 70.1984 25.1725 69.5346 19.5858C67.4445 17.7464 61.8622 16.7105 59.1143 16.8303C56.7177 21.0975 58.4279 21.3056 57.9779 25.0267L57.4623 25.0975C57.2115 24.9981 56.9723 24.8665 56.7634 24.695C54.5359 22.8676 52.3019 19.4745 52.0449 16.5983C51.7287 13.0605 52.7767 9.10762 55.0736 6.3817C57.8712 3.06152 62.0895 1.98336 66.2273 1.62268Z"/>
	<path fill="#024BAC" d="M428.896 2.01065C435.04 2.22281 441.369 2.23724 447.509 1.956C447.529 1.98274 447.549 2.00972 447.568 2.03722C447.892 2.49943 447.932 3.14496 447.943 3.69431C448.134 13.1829 447.71 22.6903 447.794 32.1818Q447.925 41.8755 447.914 51.57C447.903 54.2319 448.173 57.3337 447.665 59.9374C447.546 60.5482 447.471 60.7917 446.952 61.1434C446.291 60.8425 446.205 60.4928 445.857 59.8755C445.86 59.8644 445.864 59.8535 445.867 59.8423C445.872 59.8237 445.876 59.8047 445.88 59.7861C445.956 59.4932 445.999 59.215 445.955 58.9129C444.713 50.4227 429.52 50.8719 423.648 44.805C420.219 41.2626 418 36.6642 415.581 32.4146L407.989 19.0439C406.801 16.9561 405.302 13.3964 403.383 11.9557C404.064 13.1072 404.398 20.6975 404.704 22.5866C405.215 25.7322 405.907 29.1696 407.027 32.1638C410.034 40.1955 417.552 45.4821 419.44 53.0371C419.936 55.0215 420.639 59.2353 419.562 61.033C413.442 60.7177 407.196 60.9654 401.066 61.0081C401.323 60.5904 401.424 60.2192 401.443 59.7317C401.863 48.8036 401.369 37.6772 401.307 26.7363C401.261 18.5681 401.722 10.2744 401.312 2.12495C403.878 2.09567 406.51 2.12797 409.061 2.3979C414.915 3.01746 419.971 5.28649 423.729 9.94232C427.459 14.5632 431.1 22.1419 434.091 27.4552C437.385 33.3071 442.047 40.596 444.459 46.674C444.671 47.2072 444.733 47.7382 444.672 48.3074C444.837 47.9651 444.996 47.6184 445.125 47.2609C445.749 45.5376 444.932 42.3804 444.639 40.6149C443.371 32.9816 441.168 27.0697 436.348 21.0073C434.292 18.421 432.186 15.8197 430.867 12.7596C429.383 9.31569 430.107 4.61797 428.896 2.01065Z"/>
	<path fill="#024BAC" d="M365.675 1.62497Q366.409 1.59262 367.144 1.59607Q367.878 1.59952 368.612 1.63877Q369.345 1.67802 370.076 1.75297Q370.807 1.82792 371.534 1.9384Q372.26 2.04888 372.98 2.19462Q373.7 2.34036 374.412 2.52102Q375.124 2.70167 375.827 2.91682Q376.529 3.13196 377.22 3.38108Q377.911 3.6302 378.59 3.9127Q379.268 4.19521 379.931 4.51042Q380.595 4.82564 381.242 5.17282Q381.89 5.52 382.52 5.89832Q383.149 6.27664 383.76 6.6852Q384.371 7.09376 384.961 7.53159Q385.551 7.96942 386.118 8.43547Q386.686 8.90153 387.231 9.39471Q387.759 9.86905 388.263 10.3688Q388.767 10.8686 389.246 11.3926Q389.725 11.9166 390.178 12.4635Q390.63 13.0104 391.055 13.579Q391.48 14.1476 391.877 14.7364Q392.273 15.3252 392.64 15.9328Q393.007 16.5404 393.344 17.1653Q393.681 17.7903 393.986 18.4311Q394.292 19.0718 394.565 19.7269Q394.839 20.3819 395.08 21.0496Q395.321 21.7173 395.528 22.3961Q395.736 23.0749 395.91 23.7631Q396.084 24.4512 396.224 25.1472Q396.364 25.8431 396.47 26.5451Q396.575 27.247 396.646 27.9533Q396.717 28.6597 396.753 29.3686C397.204 37.5729 394.786 45.4991 389.242 51.6734C383.727 57.8147 376.857 60.7824 368.687 61.2188C361.969 61.5857 355.031 59.6155 349.876 55.1947C344.032 50.183 338.871 42.1519 338.28 34.3326C337.678 26.3681 339.54 18.3012 344.843 12.1369C350.222 5.88436 357.453 2.24057 365.675 1.62497ZM353.825 6.87491C352.356 7.37863 351.56 7.99574 350.862 9.40655C348.757 13.6652 350.437 20.0946 351.89 24.3246C355.609 35.1495 364.582 49.9231 375.2 55.0927C376.49 55.7207 378.893 56.7031 380.293 56.2389C381.927 55.8605 382.973 55.368 383.886 53.907C385.877 50.7247 385.03 45.9791 384.223 42.5275C381.269 29.8936 373.005 16.0956 361.811 9.15144C359.284 7.58334 356.838 6.73649 353.825 6.87491Z"/>
	<path fill="#024BAC" d="M109.897 61.0522C110.852 59.5226 109.954 23.0866 110.61 17.414C111.136 12.867 112.939 8.70599 116.597 5.81802C122.494 1.1635 130.493 1.01225 137.627 1.85932C144.265 2.64758 152.365 4.47842 156.718 10.037C158.644 12.496 159.333 15.5757 158.954 18.6561C158.231 24.519 152.696 27.6485 147.686 29.4758C146.653 29.8525 145.157 29.9823 144.311 30.645C144.351 30.858 144.316 31.0071 144.515 31.11C150.499 34.196 153.304 38.686 155.448 44.8311C156.068 46.6075 156.62 48.6756 157.587 50.2881C158.401 51.6449 160.146 53.134 161.701 53.5194C162.356 53.682 162.841 53.6012 163.418 53.2534C165.136 50.5316 166.308 44.887 167.695 41.6018C172.087 31.1959 176.609 24.6533 183.415 15.7345C183.576 15.5235 183.73 15.3515 183.776 15.0797C183.792 14.9847 183.806 14.8925 183.81 14.7959C183.879 14.5131 183.847 14.2517 183.794 13.9698C183.21 10.8411 181.256 6.23705 178.768 4.16268C178.13 3.63111 177.345 3.50915 176.697 3.05915C176.26 2.75557 176.213 2.60801 176.125 2.11558L176.389 1.77549C176.856 1.64191 177.314 1.59375 177.798 1.60084C182.944 1.67602 187.855 3.15776 192.309 5.63333C201.831 10.9267 204.725 18.0046 207.751 27.9608C209.604 34.0535 211.114 40.2723 213.144 46.306C214.042 48.9729 215.129 52.4575 217.143 54.515C218.569 55.971 220.513 55.6051 222.387 55.6301C222.854 55.5146 223.293 55.0597 223.738 54.8455C224.245 54.6011 224.854 54.6948 225.362 54.8795L225.417 55.3431C223.813 58.0601 220.972 59.6888 218.021 60.572C209.545 63.1084 201.613 59.3979 197.009 52.1161C195.707 50.0568 194.484 46.0263 192.412 44.9059C192.147 44.6427 191.924 43.8456 191.769 43.4781L185.683 43.5224C183.715 43.0728 181.153 43.3977 179.148 43.4957C179.439 44.1156 179.64 44.5679 179.58 45.2734C180.935 47.0127 181.427 50.2298 182.402 52.2863C183.335 54.2542 187.248 59.2976 187.408 61.0008C179.249 60.8112 171.045 61.0011 162.881 60.9617L162.906 60.9189C163.509 59.8267 162.971 58.128 162.658 57.0202C160.823 59.0853 156.405 60.3574 153.741 60.7565C149.713 61.3601 145.857 60.4433 142.583 58.0075C134.974 52.3455 139.838 44.6108 138.718 37.1243C137.861 31.3932 132.854 33.1047 130.897 31.6486L130.895 31.2373C130.981 31.1785 131.068 31.1277 131.159 31.0768C132.03 30.586 133.412 30.6944 134.397 30.4302C136.633 29.831 138.997 28.3269 140.151 26.2958C141.189 24.4685 141.243 22.4225 140.692 20.4301C139.28 15.3325 135.097 10.8961 130.575 8.33764C127.166 6.40906 122.662 5.28996 118.799 6.38177C117.855 6.64873 117.076 7.49465 116.611 8.33444C113.161 14.5681 126.582 17.5306 128.413 24.0612C128.834 25.562 128.957 27.2407 129.021 28.7935C129.149 31.9206 129.255 59.8301 128.587 60.9905L128.556 61.0442C122.406 60.683 116.063 60.9729 109.897 61.0522ZM184.177 16.6117C183.786 18.6315 181.884 20.4469 180.916 22.2596C176.627 30.2934 178.348 35.0888 179.148 43.4957C181.153 43.3977 183.715 43.0728 185.683 43.5224L191.769 43.4781C191.984 43.091 192.14 42.8792 192.113 42.4215C191.974 40.1157 185.445 17.7462 184.177 16.6117Z"/>
</svg>
